<svg width="120" height="120" viewBox="0 0 120 120" fill="none" xmlns="http://www.w3.org/2000/svg">
<path d="M100.605 89.4844C98.3948 84.2481 95.1868 79.4918 91.1602 75.4805C87.1457 71.4575 82.3902 68.2501 77.1562 66.0352C77.1094 66.0117 77.0625 66 77.0156 65.9766C84.3164 60.7031 89.0625 52.1133 89.0625 42.4219C89.0625 26.3672 76.0547 13.3594 60 13.3594C43.9453 13.3594 30.9375 26.3672 30.9375 42.4219C30.9375 52.1133 35.6836 60.7031 42.9844 65.9883C42.9375 66.0117 42.8906 66.0234 42.8437 66.0469C37.5937 68.2617 32.8828 71.4375 28.8398 75.4922C24.8169 79.5066 21.6094 84.2622 19.3945 89.4961C17.2186 94.6202 16.0451 100.114 15.9375 105.68C15.9344 105.805 15.9563 105.929 16.002 106.046C16.0477 106.162 16.1163 106.268 16.2037 106.358C16.291 106.447 16.3954 106.519 16.5107 106.567C16.626 106.616 16.7499 106.641 16.875 106.641H23.9062C24.4219 106.641 24.832 106.23 24.8437 105.727C25.0781 96.6797 28.7109 88.207 35.1328 81.7852C41.7773 75.1406 50.6016 71.4844 60 71.4844C69.3984 71.4844 78.2227 75.1406 84.8672 81.7852C91.2891 88.207 94.9219 96.6797 95.1562 105.727C95.168 106.242 95.5781 106.641 96.0937 106.641H103.125C103.25 106.641 103.374 106.616 103.489 106.567C103.605 106.519 103.709 106.447 103.796 106.358C103.884 106.268 103.952 106.162 103.998 106.046C104.044 105.929 104.066 105.805 104.062 105.68C103.945 100.078 102.785 94.6289 100.605 89.4844V89.4844ZM60 62.5781C54.6211 62.5781 49.5586 60.4805 45.75 56.6719C41.9414 52.8633 39.8437 47.8008 39.8437 42.4219C39.8437 37.043 41.9414 31.9805 45.75 28.1719C49.5586 24.3633 54.6211 22.2656 60 22.2656C65.3789 22.2656 70.4414 24.3633 74.25 28.1719C78.0586 31.9805 80.1562 37.043 80.1562 42.4219C80.1562 47.8008 78.0586 52.8633 74.25 56.6719C70.4414 60.4805 65.3789 62.5781 60 62.5781Z" fill="#001752"/>
</svg>
